<svg xmlns="http://www.w3.org/2000/svg" width="319.609" height="153.439" viewBox="0 0 319.609 153.439">
  <g id="WEMI_FOR_SHOPS-logo_BLUE" data-name="WEMI FOR SHOPS-logo BLUE" transform="translate(-438.93 170.044)">
    <g id="组_45035" data-name="组 45035">
      <g id="XMLID_2_">
        <g id="组_45034" data-name="组 45034">
          <path id="路径_3852" data-name="路径 3852" d="M692.35-34.47a5.833,5.833,0,0,1,5.18,6.28,5.816,5.816,0,0,1-5.9,5.87c-1.85.04-3.69,0-5.54,0h0c-1.85,0-3.69-.03-5.54.01-.79.02-1.14-.22-1.09-1.04a18.275,18.275,0,0,0,0-2.34c-.05-.79.24-1.08,1.06-1.07,3.56.04,7.11.02,10.66.01,1.26,0,1.86-.56,1.86-1.65a1.459,1.459,0,0,0-1.63-1.67c-2.19-.02-4.37,0-6.55-.01A5.164,5.164,0,0,1,680-32.67a5.136,5.136,0,0,1,4.35-7.76c3.41-.12,6.82-.02,10.24-.04.63,0,.84.28.83.86-.02.86-.04,1.73.01,2.6.04.8-.28,1.09-1.07,1.08-3.05-.03-6.1-.01-9.15-.01a5.908,5.908,0,0,0-.84.04.575.575,0,0,0-.52.65.559.559,0,0,0,.53.63c.33.03.67.03,1,.04C687.71-34.52,690.04-34.73,692.35-34.47Z" fill="#5281a9"/>
          <path id="路径_3853" data-name="路径 3853" d="M676.94-34.41q.075,3.09,0,6.2a5.878,5.878,0,0,1-6.03,5.9c-2.38.03-4.76-.01-7.13.02-.7.01-.95-.26-.93-.94.03-.86.03-1.73,0-2.59-.03-.69.27-.92.95-.91,2.18.03,4.36.02,6.54.01,1.69,0,2.08-.39,2.08-2.07,0-1.81.01-3.63,0-5.44-.01-1.26-.42-1.67-1.66-1.68q-3.87-.015-7.72,0c-1.34,0-1.73.41-1.73,1.78v16.16c0,1.33-.02,1.35-1.36,1.35-.73,0-1.46-.04-2.18.01-.79.05-1.01-.29-1-1.03.03-2.79.01-5.58.01-8.37,0-2.68-.01-5.35,0-8.03a6.031,6.031,0,0,1,6.35-6.39c2.54-.02,5.09-.02,7.63,0A5.911,5.911,0,0,1,676.94-34.41Z" fill="#5281a9"/>
          <path id="路径_3854" data-name="路径 3854" d="M653.92-34.27q.09,3.09,0,6.2a5.9,5.9,0,0,1-5.84,5.75c-1.43.04-2.86,0-4.28,0h0c-1.34,0-2.69.02-4.03,0a5.9,5.9,0,0,1-6-6.02c-.02-1.98-.01-3.96,0-5.94a5.9,5.9,0,0,1,5.96-6.15c2.79-.08,5.59-.07,8.39,0C651.44-40.35,653.82-37.81,653.92-34.27Zm-4.52,5.88c.02-1.98.03-3.96,0-5.95-.02-1.12-.46-1.57-1.51-1.58-2.69-.02-5.37-.02-8.06,0-1.08,0-1.58.43-1.61,1.5q-.09,2.97,0,5.95c.05,1.26.6,1.71,1.89,1.73,1.23.02,2.47,0,3.7,0h0c1.31,0,2.63.03,3.95-.01C648.92-26.78,649.39-27.24,649.4-28.39Z" fill="#5281a9"/>
          <path id="路径_3855" data-name="路径 3855" d="M630.89-33.76c.08,3.51.01,7.03.03,10.55,0,.69-.27.94-.95.91a25.053,25.053,0,0,0-2.6,0c-.8.05-1.02-.29-1-1.04.03-1.81.01-3.63.01-5.44V-33.8c0-1.77-.35-2.13-2.09-2.13-2.13,0-4.25-.03-6.38.01-.84.02-1.16-.28-1.11-1.12.05-.86.03-1.73.01-2.59-.01-.55.2-.82.78-.82,2.49.01,4.99-.07,7.47.03C628.6-40.27,630.8-37.77,630.89-33.76Z" fill="#5281a9"/>
          <path id="路径_3856" data-name="路径 3856" d="M615.17-23.45c0,.86-.24,1.23-1.15,1.15a16.755,16.755,0,0,0-2.35,0c-.81.05-1.08-.25-1.07-1.05.03-3.34.01-6.69.01-10.04V-46.45c0-1.67,0-1.67,1.72-1.67.59,0,1.18.03,1.77-.01.8-.05,1.08.29,1.07,1.08-.03,3.48-.01,6.97-.01,10.46C615.15-32.21,615.14-27.83,615.17-23.45Z" fill="#5281a9"/>
          <path id="路径_3857" data-name="路径 3857" d="M607.79-31.89a7.015,7.015,0,0,1-6.76,9.57c-2.55.01-5.1,0-7.64,0-2.66,0-5.32-.04-7.98.02-.95.02-1.24-.32-1.17-1.21a14.424,14.424,0,0,0,0-2.18c-.05-.79.24-1.07,1.06-1.07,5.2.03,10.41.02,15.62.01,1.91,0,2.87-1.01,2.79-2.86a2.4,2.4,0,0,0-2.62-2.45c-3.22-.02-6.44.01-9.65-.01-3.49-.02-6.12-1.87-7.03-4.91a7.047,7.047,0,0,1,6.94-9.35c4.51,0,9.02.02,13.52-.02.92-.01,1.27.29,1.21,1.2a17.048,17.048,0,0,0,0,2.26c.03.72-.26.97-.99.96-4.28-.02-8.57-.01-12.85-.01-.31,0-.62-.01-.92,0a2.649,2.649,0,0,0-2.58,3.7,2.17,2.17,0,0,0,2.36,1.61c3.28.01,6.55-.01,9.83.01A7.244,7.244,0,0,1,607.79-31.89Z" fill="#5281a9"/>
          <path id="路径_3858" data-name="路径 3858" d="M571.15-40.47c.77-.01,1.05.28,1.01,1.03s-.01,1.51-.01,2.26c0,1.2-.05,1.24-1.3,1.25h-8.31c-1.6,0-1.97.38-1.97,1.99,0,3.49-.03,6.98.01,10.47.01.93-.3,1.25-1.21,1.17a14.336,14.336,0,0,0-2.27,0c-.87.07-1.11-.3-1.09-1.12.05-1.84.01-3.69.01-5.53,0-1.76-.01-3.52,0-5.28a6.07,6.07,0,0,1,6.21-6.22C565.21-40.48,568.18-40.43,571.15-40.47Z" fill="#5281a9"/>
          <path id="路径_3859" data-name="路径 3859" d="M553.17-34.58c.05,2.18.05,4.35,0,6.53a5.841,5.841,0,0,1-5.77,5.72c-1.46.05-2.91.01-4.37.01h0c-1.34,0-2.68.02-4.03,0a5.793,5.793,0,0,1-5.92-5.37,47.936,47.936,0,0,1,0-7.19,5.557,5.557,0,0,1,5.36-5.47,49.289,49.289,0,0,1,9.64.04A5.662,5.662,0,0,1,553.17-34.58Zm-4.47,6.36a44.854,44.854,0,0,0-.01-6.35,1.345,1.345,0,0,0-1.56-1.36c-1.31.01-2.63,0-3.94,0s-2.63-.01-3.95,0c-1.22.02-1.67.45-1.68,1.68-.02,1.92-.02,3.85,0,5.77.01,1.24.48,1.72,1.75,1.72,2.57.02,5.15.02,7.72,0C548.08-26.75,548.63-27.17,548.7-28.22Z" fill="#5281a9"/>
          <path id="路径_3860" data-name="路径 3860" d="M530.36-46.33c.91,0,1.28.26,1.19,1.19a9.549,9.549,0,0,0,0,2c.09.94-.23,1.26-1.21,1.25-4.95-.05-9.91-.02-14.86-.02-1.29,0-1.29,0-1.29,1.31v17.08c0,1.19-.02,1.2-1.23,1.2-.78,0-1.57-.04-2.35.01-.75.05-.97-.27-.97-.98.02-3.43.01-6.87.01-10.3v-9.88c0-2.08.76-2.85,2.81-2.85C518.44-46.32,524.4-46.3,530.36-46.33Z" fill="#5281a9"/>
          <path id="路径_3861" data-name="路径 3861" d="M529.66-32.85c.01.63-.29.82-.88.81-2.04-.02-4.08-.01-6.11-.01-1.98,0-3.96-.02-5.95.01-.78.02-1.05-.28-1.01-1.03.05-.91.02-1.84.01-2.76,0-.52.22-.76.75-.76h12.48a.626.626,0,0,1,.71.72C529.65-34.86,529.64-33.85,529.66-32.85Z" fill="#5281a9"/>
        </g>
      </g>
    </g>
    <g id="组_45047" data-name="组 45047">
      <g id="组_45046" data-name="组 45046">
        <g id="组_45037" data-name="组 45037">
          <g id="组_45036" data-name="组 45036">
            <path id="路径_3862" data-name="路径 3862" d="M728.57-91.31H714.7v-43.75c-.41-.13-.81-.26-1.22-.39-2.76,4.73-5.55,9.44-8.26,14.19-4.99,8.74-9.85,17.54-14.91,26.23-3.99,6.84-9.82,6.84-13.84-.09-7.76-13.35-15.35-26.81-23.85-41.71V-91.8c-4.93,1.15-9.43.46-14.38.66v-71.78a6.509,6.509,0,0,1,5.01-6.75c3.76-1.05,6.56.54,8.53,3.98q13.635,23.85,27.42,47.63c1.19,2.07,2.38,4.15,4.09,7.11,4.2-7.14,8.04-13.55,11.77-20.04q9.48-16.485,18.85-33.05c2.1-3.7,4.53-6.99,9.44-5.73,4.98,1.27,5.28,5.3,5.27,9.59C728.53-137.37,728.57-114.58,728.57-91.31Z" fill="#0f5088"/>
          </g>
        </g>
        <g id="组_45039" data-name="组 45039">
          <g id="组_45038" data-name="组 45038">
            <path id="路径_3863" data-name="路径 3863" d="M528.23-168.69h14.15c-2.43,13.84-4.78,27.4-7.19,40.95-1.81,10.11-3.8,20.19-5.51,30.32-.64,3.82-2.35,6.52-6.22,7.14-3.65.59-5.93-1.55-7.75-4.58-8.1-13.41-16.3-26.75-25-40.98-5.49,8.97-10.59,17.29-15.68,25.61q-4.89,7.98-9.74,15.99c-1.72,2.82-4.12,4.55-7.5,3.96-3.31-.58-5.26-2.77-5.86-6.11-4.31-23.96-8.63-47.91-13-72.21h14.22c3.02,16.36,6.06,32.85,9.39,50.92,7.19-11.47,13.55-21.61,19.92-31.75,5.99-9.54,10.61-9.5,16.63.14,6.28,10.05,12.54,20.11,19.71,31.6C522.11-135.58,525.15-152.02,528.23-168.69Z" fill="#0f5088"/>
          </g>
        </g>
        <g id="组_45041" data-name="组 45041">
          <g id="组_45040" data-name="组 45040">
            <path id="路径_3864" data-name="路径 3864" d="M624.73-105.45v13.42c-1.49,1.44-3.19.86-4.72.86q-22.095.075-44.19.02c-13.88-.04-21.42-7.47-21.47-21.17q-.075-23.61,0-47.22c.02-7.33,2-9.31,9.33-9.32,20.16-.03,40.31-.01,60.67-.01,1,4.66.39,9,.48,13.97h-56.4c0,15.28-.09,29.93.05,44.58.04,4.3,3.18,4.92,6.81,4.9,14.33-.09,28.65-.04,42.98-.04C620.25-105.45,622.22-105.45,624.73-105.45Z" fill="#0f5088"/>
          </g>
        </g>
        <g id="组_45043" data-name="组 45043">
          <g id="组_45042" data-name="组 45042">
            <path id="路径_3865" data-name="路径 3865" d="M758.54-91.31H745.17v-77.28h13.37Z" fill="#0f5088"/>
          </g>
        </g>
        <g id="组_45045" data-name="组 45045">
          <g id="组_45044" data-name="组 45044">
            <path id="路径_3866" data-name="路径 3866" d="M574.31-123.14v-13.67h43.81v13.67Z" fill="#0f5088"/>
          </g>
        </g>
      </g>
    </g>
  </g>
</svg>
